<mxfile host="app.diagrams.net" modified="2022-12-30T06:02:49.422Z" agent="5.0 (Windows NT 10.0; Win64; x64) AppleWebKit/537.36 (KHTML, like Gecko) Chrome/107.0.0.0 Safari/537.36" version="20.7.4" etag="PLupueLWB6maE9bXTk5R" type="github">
  <diagram id="BeL8pKADKs07miWRGsPu" name="Trang-1">
    <mxGraphModel dx="1221" dy="609" grid="1" gridSize="10" guides="1" tooltips="1" connect="1" arrows="1" fold="1" page="1" pageScale="1" pageWidth="827" pageHeight="1169" math="0" shadow="0">
      <root>
        <mxCell id="0" />
        <mxCell id="1" parent="0" />
        <mxCell id="uA1vvAlscTO2LyDnxtWb-30" style="edgeStyle=orthogonalEdgeStyle;rounded=0;orthogonalLoop=1;jettySize=auto;html=1;exitX=0.5;exitY=1;exitDx=0;exitDy=0;entryX=0.5;entryY=0;entryDx=0;entryDy=0;" edge="1" parent="1" source="uA1vvAlscTO2LyDnxtWb-1" target="uA1vvAlscTO2LyDnxtWb-2">
          <mxGeometry relative="1" as="geometry" />
        </mxCell>
        <mxCell id="uA1vvAlscTO2LyDnxtWb-1" value="Bắt đầu" style="ellipse;whiteSpace=wrap;html=1;" vertex="1" parent="1">
          <mxGeometry x="260" y="50" width="120" height="80" as="geometry" />
        </mxCell>
        <mxCell id="uA1vvAlscTO2LyDnxtWb-31" style="edgeStyle=orthogonalEdgeStyle;rounded=0;orthogonalLoop=1;jettySize=auto;html=1;exitX=0.5;exitY=1;exitDx=0;exitDy=0;entryX=0.5;entryY=0;entryDx=0;entryDy=0;" edge="1" parent="1" source="uA1vvAlscTO2LyDnxtWb-2" target="uA1vvAlscTO2LyDnxtWb-3">
          <mxGeometry relative="1" as="geometry" />
        </mxCell>
        <mxCell id="uA1vvAlscTO2LyDnxtWb-2" value="Khởi tạo&lt;br&gt;Hit = 0&lt;br&gt;Miss = 0&lt;br&gt;Fault = 0" style="rounded=0;whiteSpace=wrap;html=1;" vertex="1" parent="1">
          <mxGeometry x="260" y="160" width="120" height="60" as="geometry" />
        </mxCell>
        <mxCell id="uA1vvAlscTO2LyDnxtWb-25" style="edgeStyle=orthogonalEdgeStyle;rounded=0;orthogonalLoop=1;jettySize=auto;html=1;exitX=0.5;exitY=1;exitDx=0;exitDy=0;entryX=0.5;entryY=0;entryDx=0;entryDy=0;" edge="1" parent="1" source="uA1vvAlscTO2LyDnxtWb-3" target="uA1vvAlscTO2LyDnxtWb-9">
          <mxGeometry relative="1" as="geometry" />
        </mxCell>
        <mxCell id="uA1vvAlscTO2LyDnxtWb-3" value="Nhập vào một trang" style="rounded=0;whiteSpace=wrap;html=1;" vertex="1" parent="1">
          <mxGeometry x="260" y="260" width="120" height="60" as="geometry" />
        </mxCell>
        <mxCell id="uA1vvAlscTO2LyDnxtWb-18" style="edgeStyle=orthogonalEdgeStyle;rounded=0;orthogonalLoop=1;jettySize=auto;html=1;exitX=1;exitY=0.5;exitDx=0;exitDy=0;entryX=0;entryY=0.5;entryDx=0;entryDy=0;" edge="1" parent="1" source="uA1vvAlscTO2LyDnxtWb-9" target="uA1vvAlscTO2LyDnxtWb-10">
          <mxGeometry relative="1" as="geometry" />
        </mxCell>
        <mxCell id="uA1vvAlscTO2LyDnxtWb-26" style="edgeStyle=orthogonalEdgeStyle;rounded=0;orthogonalLoop=1;jettySize=auto;html=1;exitX=0.5;exitY=1;exitDx=0;exitDy=0;entryX=0.5;entryY=0;entryDx=0;entryDy=0;" edge="1" parent="1" source="uA1vvAlscTO2LyDnxtWb-9" target="uA1vvAlscTO2LyDnxtWb-11">
          <mxGeometry relative="1" as="geometry" />
        </mxCell>
        <mxCell id="uA1vvAlscTO2LyDnxtWb-9" value="Kiểm tra&lt;br&gt;ở trong bộ nhớ" style="rhombus;whiteSpace=wrap;html=1;" vertex="1" parent="1">
          <mxGeometry x="260" y="350" width="120" height="80" as="geometry" />
        </mxCell>
        <mxCell id="uA1vvAlscTO2LyDnxtWb-20" style="edgeStyle=orthogonalEdgeStyle;rounded=0;orthogonalLoop=1;jettySize=auto;html=1;exitX=1;exitY=0.5;exitDx=0;exitDy=0;entryX=0.5;entryY=0;entryDx=0;entryDy=0;" edge="1" parent="1" source="uA1vvAlscTO2LyDnxtWb-10" target="uA1vvAlscTO2LyDnxtWb-14">
          <mxGeometry relative="1" as="geometry" />
        </mxCell>
        <mxCell id="uA1vvAlscTO2LyDnxtWb-10" value="Hit++" style="rounded=0;whiteSpace=wrap;html=1;" vertex="1" parent="1">
          <mxGeometry x="450" y="360" width="120" height="60" as="geometry" />
        </mxCell>
        <mxCell id="uA1vvAlscTO2LyDnxtWb-27" style="edgeStyle=orthogonalEdgeStyle;rounded=0;orthogonalLoop=1;jettySize=auto;html=1;exitX=0.5;exitY=1;exitDx=0;exitDy=0;entryX=0.5;entryY=0;entryDx=0;entryDy=0;" edge="1" parent="1" source="uA1vvAlscTO2LyDnxtWb-11" target="uA1vvAlscTO2LyDnxtWb-12">
          <mxGeometry relative="1" as="geometry" />
        </mxCell>
        <mxCell id="uA1vvAlscTO2LyDnxtWb-11" value="Miss++&lt;br&gt;Fault++" style="rounded=0;whiteSpace=wrap;html=1;" vertex="1" parent="1">
          <mxGeometry x="260" y="460" width="120" height="60" as="geometry" />
        </mxCell>
        <mxCell id="uA1vvAlscTO2LyDnxtWb-19" style="edgeStyle=orthogonalEdgeStyle;rounded=0;orthogonalLoop=1;jettySize=auto;html=1;exitX=1;exitY=0.5;exitDx=0;exitDy=0;entryX=0;entryY=0.5;entryDx=0;entryDy=0;" edge="1" parent="1" source="uA1vvAlscTO2LyDnxtWb-12" target="uA1vvAlscTO2LyDnxtWb-13">
          <mxGeometry relative="1" as="geometry" />
        </mxCell>
        <mxCell id="uA1vvAlscTO2LyDnxtWb-28" style="edgeStyle=orthogonalEdgeStyle;rounded=0;orthogonalLoop=1;jettySize=auto;html=1;exitX=0.5;exitY=1;exitDx=0;exitDy=0;entryX=0.5;entryY=0;entryDx=0;entryDy=0;" edge="1" parent="1" source="uA1vvAlscTO2LyDnxtWb-12" target="uA1vvAlscTO2LyDnxtWb-15">
          <mxGeometry relative="1" as="geometry" />
        </mxCell>
        <mxCell id="uA1vvAlscTO2LyDnxtWb-12" value="Bộ nhớ đẩy?" style="rhombus;whiteSpace=wrap;html=1;" vertex="1" parent="1">
          <mxGeometry x="270" y="545" width="100" height="80" as="geometry" />
        </mxCell>
        <mxCell id="uA1vvAlscTO2LyDnxtWb-21" style="edgeStyle=orthogonalEdgeStyle;rounded=0;orthogonalLoop=1;jettySize=auto;html=1;exitX=1;exitY=0.5;exitDx=0;exitDy=0;" edge="1" parent="1" source="uA1vvAlscTO2LyDnxtWb-13">
          <mxGeometry relative="1" as="geometry">
            <mxPoint x="590" y="640" as="targetPoint" />
          </mxGeometry>
        </mxCell>
        <mxCell id="uA1vvAlscTO2LyDnxtWb-13" value="Thêm vào bộ nhớ" style="rounded=0;whiteSpace=wrap;html=1;" vertex="1" parent="1">
          <mxGeometry x="450" y="555" width="120" height="60" as="geometry" />
        </mxCell>
        <mxCell id="uA1vvAlscTO2LyDnxtWb-22" style="edgeStyle=orthogonalEdgeStyle;rounded=0;orthogonalLoop=1;jettySize=auto;html=1;exitX=0.5;exitY=1;exitDx=0;exitDy=0;entryX=1;entryY=0.5;entryDx=0;entryDy=0;" edge="1" parent="1" source="uA1vvAlscTO2LyDnxtWb-14" target="uA1vvAlscTO2LyDnxtWb-16">
          <mxGeometry relative="1" as="geometry" />
        </mxCell>
        <mxCell id="uA1vvAlscTO2LyDnxtWb-14" value="Cập nhật thời điểm&lt;br&gt;tham chiếu" style="rounded=0;whiteSpace=wrap;html=1;" vertex="1" parent="1">
          <mxGeometry x="530" y="640" width="120" height="60" as="geometry" />
        </mxCell>
        <mxCell id="uA1vvAlscTO2LyDnxtWb-29" style="edgeStyle=orthogonalEdgeStyle;rounded=0;orthogonalLoop=1;jettySize=auto;html=1;exitX=0.5;exitY=1;exitDx=0;exitDy=0;entryX=0.5;entryY=0;entryDx=0;entryDy=0;" edge="1" parent="1" source="uA1vvAlscTO2LyDnxtWb-15" target="uA1vvAlscTO2LyDnxtWb-16">
          <mxGeometry relative="1" as="geometry" />
        </mxCell>
        <mxCell id="uA1vvAlscTO2LyDnxtWb-15" value="Thay thế trang có thời điểm tham chiếu nhỏ nhất ở quá khứ trong bộ nhớ" style="rounded=0;whiteSpace=wrap;html=1;" vertex="1" parent="1">
          <mxGeometry x="260" y="660" width="120" height="60" as="geometry" />
        </mxCell>
        <mxCell id="uA1vvAlscTO2LyDnxtWb-23" style="edgeStyle=orthogonalEdgeStyle;rounded=0;orthogonalLoop=1;jettySize=auto;html=1;exitX=0.5;exitY=1;exitDx=0;exitDy=0;entryX=0.5;entryY=0;entryDx=0;entryDy=0;" edge="1" parent="1" source="uA1vvAlscTO2LyDnxtWb-16" target="uA1vvAlscTO2LyDnxtWb-17">
          <mxGeometry relative="1" as="geometry" />
        </mxCell>
        <mxCell id="uA1vvAlscTO2LyDnxtWb-24" style="edgeStyle=orthogonalEdgeStyle;rounded=0;orthogonalLoop=1;jettySize=auto;html=1;exitX=0;exitY=0.5;exitDx=0;exitDy=0;entryX=0;entryY=0.5;entryDx=0;entryDy=0;" edge="1" parent="1" source="uA1vvAlscTO2LyDnxtWb-16" target="uA1vvAlscTO2LyDnxtWb-3">
          <mxGeometry relative="1" as="geometry">
            <Array as="points">
              <mxPoint x="220" y="790" />
              <mxPoint x="220" y="290" />
            </Array>
          </mxGeometry>
        </mxCell>
        <mxCell id="uA1vvAlscTO2LyDnxtWb-16" value="Hoàn thành" style="rhombus;whiteSpace=wrap;html=1;" vertex="1" parent="1">
          <mxGeometry x="280" y="750" width="80" height="80" as="geometry" />
        </mxCell>
        <mxCell id="uA1vvAlscTO2LyDnxtWb-17" value="Kết thúc" style="ellipse;whiteSpace=wrap;html=1;" vertex="1" parent="1">
          <mxGeometry x="260" y="870" width="120" height="80" as="geometry" />
        </mxCell>
        <mxCell id="uA1vvAlscTO2LyDnxtWb-32" value="LRU" style="text;html=1;strokeColor=none;fillColor=none;align=center;verticalAlign=middle;whiteSpace=wrap;rounded=0;" vertex="1" parent="1">
          <mxGeometry x="290" y="20" width="60" height="30" as="geometry" />
        </mxCell>
        <mxCell id="uA1vvAlscTO2LyDnxtWb-33" value="Có" style="text;html=1;strokeColor=none;fillColor=none;align=center;verticalAlign=middle;whiteSpace=wrap;rounded=0;" vertex="1" parent="1">
          <mxGeometry x="380" y="364" width="60" height="30" as="geometry" />
        </mxCell>
        <mxCell id="uA1vvAlscTO2LyDnxtWb-34" value="Không" style="text;html=1;strokeColor=none;fillColor=none;align=center;verticalAlign=middle;whiteSpace=wrap;rounded=0;" vertex="1" parent="1">
          <mxGeometry x="312" y="427" width="60" height="30" as="geometry" />
        </mxCell>
        <mxCell id="uA1vvAlscTO2LyDnxtWb-35" value="Không" style="text;html=1;strokeColor=none;fillColor=none;align=center;verticalAlign=middle;whiteSpace=wrap;rounded=0;" vertex="1" parent="1">
          <mxGeometry x="373" y="559" width="60" height="30" as="geometry" />
        </mxCell>
        <mxCell id="uA1vvAlscTO2LyDnxtWb-36" value="Có" style="text;html=1;strokeColor=none;fillColor=none;align=center;verticalAlign=middle;whiteSpace=wrap;rounded=0;" vertex="1" parent="1">
          <mxGeometry x="304" y="625" width="60" height="30" as="geometry" />
        </mxCell>
        <mxCell id="uA1vvAlscTO2LyDnxtWb-37" value="Không" style="text;html=1;strokeColor=none;fillColor=none;align=center;verticalAlign=middle;whiteSpace=wrap;rounded=0;" vertex="1" parent="1">
          <mxGeometry x="220" y="765" width="60" height="30" as="geometry" />
        </mxCell>
        <mxCell id="uA1vvAlscTO2LyDnxtWb-38" value="Có" style="text;html=1;strokeColor=none;fillColor=none;align=center;verticalAlign=middle;whiteSpace=wrap;rounded=0;" vertex="1" parent="1">
          <mxGeometry x="303" y="831" width="60" height="30" as="geometry" />
        </mxCell>
      </root>
    </mxGraphModel>
  </diagram>
</mxfile>
